# Blender 4.1.0
# www.blender.org
mtllib add_drive.mtl
o base
v 0.000035 -0.000001 9.038490
v 15.880410 -0.374897 34.898430
v 0.000062 -0.000001 60.758354
v -15.880310 0.374895 34.898430
v 1.581932 67.008232 6.059631
v 15.663389 83.965149 26.630796
v 2.397810 101.567467 47.202072
v -11.683643 84.610748 26.630800
v 3.232497 136.925491 -6.192810
v 11.735771 155.553391 3.086776
v 4.121007 174.561798 12.366356
v -4.382263 155.933884 3.086778
v 4.803879 203.488800 -32.149357
v 4.361047 184.730865 -40.465084
v 4.638610 196.488266 -37.697762
v 0.000035 -0.000001 9.038490
v 15.880410 -0.374897 34.898430
v 0.000062 -0.000001 60.758354
v -15.880310 0.374895 34.898430
v -1.581863 -67.008232 6.059631
v 11.683731 -84.610748 26.630796
v -2.397700 -101.567467 47.202072
v -15.663300 -83.965149 26.630800
v -3.232442 -136.925491 -6.192810
v 4.382332 -155.933884 3.086776
v -4.120931 -174.561798 12.366356
v -11.735703 -155.553391 3.086778
v -4.803849 -203.488800 -32.149357
v -4.361025 -184.730865 -40.465084
v -4.638588 -196.488266 -37.697762
v -1.581863 -67.008232 6.059631
v 11.683731 -84.610748 26.630796
v -2.397700 -101.567467 47.202072
v -15.663300 -83.965149 26.630800
v -3.232442 -136.925491 -6.192810
v 4.382332 -155.933884 3.086776
v -4.120931 -174.561798 12.366356
v -11.735703 -155.553391 3.086778
v -4.803849 -203.488800 -32.149357
v -4.361025 -184.730865 -40.465084
v -4.638588 -196.488266 -37.697762
v 1.581932 67.008232 6.059631
v 15.663389 83.965149 26.630796
v 2.397810 101.567467 47.202072
v -11.683643 84.610748 26.630800
v 3.232497 136.925491 -6.192810
v 11.735771 155.553391 3.086776
v 4.121007 174.561798 12.366356
v -4.382263 155.933884 3.086778
v 4.803879 203.488800 -32.149357
v 4.361047 184.730865 -40.465084
v 4.638610 196.488266 -37.697762
v 0.000000 0.000035 9.038490
v 0.000000 15.884835 34.898430
v 0.000000 0.000062 60.758354
v -0.000000 -15.884735 34.898430
v -67.026901 0.000034 6.059631
v -84.311432 13.677370 26.630796
v -101.595764 0.000055 47.202072
v -84.311432 -13.677280 26.630798
v -136.963654 0.000027 -6.192810
v -155.787033 8.061296 3.086776
v -174.610443 0.000038 12.366356
v -155.787048 -8.061228 3.086777
v -203.545502 0.000014 -32.149357
v -184.782333 0.000011 -40.465084
v -196.543015 0.000011 -37.697762
v 0.000000 0.000035 9.038490
v 0.000000 15.884835 34.898430
v 0.000000 0.000062 60.758354
v -0.000000 -15.884735 34.898430
v 67.026909 0.000034 6.059631
v 84.311432 13.677370 26.630798
v 101.595764 0.000055 47.202072
v 84.311440 -13.677282 26.630800
v 136.963654 0.000027 -6.192810
v 155.787048 8.061296 3.086776
v 174.610443 0.000038 12.366356
v 155.787033 -8.061228 3.086778
v 203.545502 0.000015 -32.149357
v 184.782333 0.000012 -40.465084
v 196.543015 0.000011 -37.697762
v 67.026909 0.000034 6.059631
v 84.311432 13.677370 26.630798
v 101.595764 0.000055 47.202072
v 84.311440 -13.677282 26.630800
v 136.963654 0.000027 -6.192810
v 155.787048 8.061296 3.086776
v 174.610443 0.000038 12.366356
v 155.787033 -8.061228 3.086778
v 203.545502 0.000015 -32.149357
v 184.782333 0.000012 -40.465084
v 196.543015 0.000011 -37.697762
v -67.026901 0.000034 6.059631
v -84.311432 13.677370 26.630796
v -101.595764 0.000055 47.202072
v -84.311432 -13.677280 26.630798
v -136.963654 0.000027 -6.192810
v -155.787033 8.061296 3.086776
v -174.610443 0.000038 12.366356
v -155.787048 -8.061228 3.086777
v -203.545502 0.000014 -32.149357
v -184.782333 0.000011 -40.465084
v -196.543015 0.000011 -37.697762
vn 0.8517 -0.0669 -0.5198
vn 0.9982 0.0209 -0.0560
vn 0.9997 -0.0237 -0.0106
vn 0.8518 -0.0202 -0.5235
vn 0.8517 -0.0667 -0.5198
vn 0.9997 -0.0236 -0.0102
vn 0.8689 0.0930 0.4861
vn 0.8518 -0.0201 0.5235
vn 0.9997 -0.0236 -0.0099
vn 0.9983 0.0210 -0.0550
vn 0.8690 0.0930 0.4860
vn 0.9997 -0.0236 -0.0097
vn -0.8636 0.1339 0.4860
vn -0.9962 0.0681 -0.0550
vn -0.9997 0.0236 -0.0097
vn -0.8518 0.0201 0.5235
vn -0.8636 0.1339 0.4861
vn -0.9997 0.0236 -0.0099
vn -0.8541 -0.0269 -0.5195
vn -0.8518 0.0200 -0.5235
vn -0.9997 0.0235 -0.0102
vn -0.9961 0.0680 -0.0560
vn -0.8539 -0.0266 -0.5198
vn -0.9997 0.0237 -0.0107
vn 0.9211 -0.1241 -0.3690
vn 0.9943 0.0329 -0.1015
vn 0.9982 0.0209 -0.0557
vn 0.8517 -0.0675 -0.5197
vn 0.9211 -0.1241 -0.3689
vn 0.9982 0.0208 -0.0557
vn 0.9170 0.2120 0.3378
vn 0.9982 0.0211 -0.0555
vn 0.9943 0.0332 -0.1012
vn 0.9171 0.2120 0.3377
vn -0.9060 0.2550 0.3377
vn -0.9916 0.0800 -0.1012
vn -0.9962 0.0682 -0.0551
vn -0.8636 0.1340 0.4860
vn -0.9060 0.2550 0.3378
vn -0.9961 0.0681 -0.0555
vn -0.9260 -0.0805 -0.3689
vn -0.8539 -0.0272 -0.5197
vn -0.9961 0.0680 -0.0557
vn -0.9916 0.0799 -0.1015
vn -0.9260 -0.0805 -0.3690
vn -0.9260 -0.0806 -0.3689
vn -0.9916 0.0799 -0.1013
vn -0.9851 -0.0190 -0.1707
vn -0.9997 0.0236 -0.0000
vn -0.9261 -0.0805 -0.3686
vn -0.9852 -0.0185 -0.1704
vn -0.9740 0.2221 0.0454
vn -0.9852 -0.0184 -0.1704
vn -0.9060 0.2550 0.3380
vn -0.9739 0.2222 0.0454
vn -0.9916 0.0801 -0.1012
vn 0.9832 -0.0655 -0.1707
vn 0.9943 0.0330 -0.1014
vn 0.9211 -0.1242 -0.3689
vn 0.9997 -0.0236 -0.0000
vn 0.9832 -0.0649 -0.1704
vn 0.9213 -0.1240 -0.3686
vn 0.9943 0.0331 -0.1013
vn 0.9834 0.1758 0.0454
vn 0.9170 0.2120 0.3379
vn 0.9833 0.1760 0.0457
vn 0.9997 -0.0237 -0.0107
vn 0.9961 -0.0680 -0.0560
vn 0.8539 0.0266 -0.5198
vn 0.8518 -0.0200 -0.5235
vn 0.9997 -0.0235 -0.0102
vn 0.8541 0.0269 -0.5195
vn 0.8636 -0.1339 0.4860
vn 0.9962 -0.0681 -0.0550
vn 0.8636 -0.1339 0.4861
vn -0.9983 -0.0210 -0.0550
vn -0.8690 -0.0930 0.4860
vn -0.8689 -0.0930 0.4861
vn -0.8517 0.0669 -0.5198
vn -0.9982 -0.0209 -0.0560
vn -0.9997 0.0237 -0.0106
vn -0.8518 0.0202 -0.5235
vn -0.8517 0.0667 -0.5198
vn -0.9997 0.0236 -0.0102
vn 0.9916 -0.0799 -0.1015
vn 0.9260 0.0805 -0.3690
vn 0.8539 0.0272 -0.5197
vn 0.9961 -0.0680 -0.0557
vn 0.9260 0.0805 -0.3689
vn 0.9060 -0.2550 0.3377
vn 0.9916 -0.0800 -0.1012
vn 0.9962 -0.0682 -0.0551
vn 0.8636 -0.1340 0.4860
vn 0.9060 -0.2550 0.3378
vn 0.9961 -0.0681 -0.0555
vn -0.9982 -0.0211 -0.0555
vn -0.9943 -0.0332 -0.1012
vn -0.9171 -0.2120 0.3377
vn -0.9170 -0.2120 0.3378
vn -0.9211 0.1241 -0.3690
vn -0.9943 -0.0330 -0.1014
vn -0.9982 -0.0210 -0.0560
vn -0.8517 0.0675 -0.5197
vn -0.9211 0.1241 -0.3689
vn -0.9982 -0.0208 -0.0557
vn -0.9213 0.1240 -0.3686
vn -0.9832 0.0649 -0.1704
vn -0.9211 0.1242 -0.3689
vn -0.9832 0.0655 -0.1707
vn -0.9943 -0.0331 -0.1013
vn -0.9834 -0.1758 0.0454
vn -0.9170 -0.2120 0.3379
vn -0.9833 -0.1760 0.0457
vn 0.9852 0.0185 -0.1704
vn 0.9261 0.0805 -0.3686
vn 0.9916 -0.0799 -0.1013
vn 0.9851 0.0190 -0.1707
vn 0.9260 0.0806 -0.3689
vn 0.9740 -0.2221 0.0454
vn 0.9852 0.0184 -0.1704
vn 0.9060 -0.2550 0.3380
vn 0.9739 -0.2222 0.0454
vn 0.9916 -0.0801 -0.1012
vn 0.9060 -0.2551 0.3377
vn -0.8517 0.0674 -0.5197
vn -0.8539 -0.0271 -0.5197
vn 0.0468 0.8530 -0.5198
vn -0.0445 0.9974 -0.0560
vn 0.0001 0.9999 -0.0106
vn 0.0001 0.8520 -0.5235
vn 0.0466 0.8530 -0.5198
vn -0.0000 0.9999 -0.0102
vn -0.1135 0.8665 0.4861
vn -0.0000 0.8520 0.5235
vn -0.0000 1.0000 -0.0099
vn -0.0446 0.9975 -0.0550
vn -0.1135 0.8665 0.4860
vn -0.0000 1.0000 -0.0097
vn -0.1135 -0.8665 0.4860
vn -0.0446 -0.9975 -0.0550
vn -0.0000 -1.0000 -0.0097
vn -0.0000 -0.8520 0.5235
vn -0.1135 -0.8665 0.4861
vn -0.0000 -1.0000 -0.0099
vn 0.0471 -0.8532 -0.5195
vn 0.0001 -0.8520 -0.5235
vn 0.0001 -0.9999 -0.0102
vn -0.0445 -0.9974 -0.0560
vn 0.0468 -0.8530 -0.5198
vn -0.0001 -0.9999 -0.0107
vn 0.1023 0.9238 -0.3690
vn -0.0564 0.9932 -0.1015
vn -0.0444 0.9975 -0.0557
vn 0.0473 0.8530 -0.5197
vn 0.1023 0.9238 -0.3689
vn -0.2336 0.9118 0.3378
vn -0.1135 0.8666 0.4860
vn -0.0446 0.9975 -0.0555
vn -0.0566 0.9933 -0.1012
vn -0.2336 0.9118 0.3377
vn -0.0447 0.9975 -0.0555
vn -0.2336 -0.9118 0.3377
vn -0.0566 -0.9933 -0.1012
vn -0.0446 -0.9975 -0.0551
vn -0.1135 -0.8666 0.4860
vn -0.2336 -0.9118 0.3378
vn -0.0446 -0.9975 -0.0555
vn 0.1023 -0.9238 -0.3689
vn 0.0473 -0.8530 -0.5197
vn -0.0445 -0.9975 -0.0557
vn -0.0565 -0.9932 -0.1015
vn 0.1023 -0.9238 -0.3690
vn 0.1024 -0.9238 -0.3689
vn -0.0565 -0.9932 -0.1013
vn 0.0422 -0.9844 -0.1707
vn -0.0000 -1.0000 -0.0000
vn 0.1023 -0.9239 -0.3686
vn 0.0417 -0.9845 -0.1704
vn -0.1990 -0.9789 0.0454
vn -0.2335 -0.9117 0.3380
vn -0.1991 -0.9789 0.0454
vn -0.0567 -0.9932 -0.1012
vn 0.0422 0.9844 -0.1707
vn -0.0565 0.9932 -0.1014
vn 0.1024 0.9238 -0.3689
vn -0.0000 1.0000 -0.0000
vn 0.0417 0.9845 -0.1704
vn 0.1022 0.9239 -0.3686
vn -0.0565 0.9932 -0.1013
vn -0.1990 0.9790 0.0454
vn -0.2336 0.9117 0.3379
vn -0.1991 0.9789 0.0457
vn 0.0001 0.9999 -0.0107
vn 0.0445 0.9974 -0.0560
vn -0.0468 0.8530 -0.5198
vn -0.0001 0.8520 -0.5235
vn -0.0001 0.9999 -0.0102
vn -0.0471 0.8532 -0.5195
vn 0.1135 0.8665 0.4860
vn 0.0446 0.9975 -0.0550
vn 0.1135 0.8665 0.4861
vn 0.0446 -0.9975 -0.0550
vn 0.1135 -0.8665 0.4860
vn 0.1135 -0.8665 0.4861
vn -0.0468 -0.8530 -0.5198
vn 0.0445 -0.9974 -0.0560
vn -0.0001 -0.9999 -0.0106
vn -0.0001 -0.8520 -0.5235
vn -0.0466 -0.8530 -0.5198
vn -0.0000 -0.9999 -0.0102
vn 0.0565 0.9932 -0.1015
vn -0.1023 0.9238 -0.3690
vn -0.0473 0.8530 -0.5197
vn 0.0445 0.9975 -0.0557
vn -0.1023 0.9238 -0.3689
vn 0.2336 0.9118 0.3377
vn 0.0566 0.9933 -0.1012
vn 0.0446 0.9975 -0.0551
vn 0.1135 0.8666 0.4860
vn 0.2336 0.9118 0.3378
vn 0.0446 0.9975 -0.0555
vn 0.0447 -0.9975 -0.0555
vn 0.0566 -0.9933 -0.1012
vn 0.2336 -0.9118 0.3377
vn 0.1135 -0.8666 0.4860
vn 0.0446 -0.9975 -0.0555
vn 0.2336 -0.9118 0.3378
vn -0.1023 -0.9238 -0.3690
vn 0.0564 -0.9932 -0.1014
vn 0.0446 -0.9974 -0.0560
vn -0.0473 -0.8530 -0.5197
vn -0.1023 -0.9238 -0.3689
vn 0.0444 -0.9975 -0.0557
vn -0.1022 -0.9239 -0.3686
vn -0.0417 -0.9845 -0.1704
vn 0.0565 -0.9932 -0.1014
vn -0.1024 -0.9238 -0.3689
vn -0.0422 -0.9844 -0.1707
vn 0.0565 -0.9932 -0.1013
vn 0.1990 -0.9790 0.0454
vn 0.2336 -0.9117 0.3379
vn 0.1991 -0.9789 0.0457
vn -0.0417 0.9845 -0.1704
vn -0.1023 0.9239 -0.3686
vn 0.0565 0.9932 -0.1013
vn -0.0422 0.9844 -0.1707
vn -0.1024 0.9238 -0.3689
vn 0.1990 0.9789 0.0454
vn 0.2335 0.9117 0.3380
vn 0.1991 0.9789 0.0454
vn 0.0567 0.9932 -0.1012
vt 0.485330 0.306890
vt 0.482820 0.453080
vt 0.675020 0.454150
vt 0.675020 0.304420
vt 0.479010 0.599820
vt 0.675020 0.603870
vt 0.298710 0.341250
vt 0.290620 0.452000
vt 0.276490 0.564730
vt 0.086310 0.416400
vt 0.110400 0.326640
vt 0.069290 0.507390
s 0
f 5/1/1 6/2/2 2/3/3
f 1/4/4 5/1/5 2/3/6
f 7/5/7 3/6/8 2/3/9
f 6/2/10 7/5/11 2/3/12
f 7/5/13 8/2/14 4/3/15
f 3/6/16 7/5/17 4/3/18
f 5/1/19 1/4/20 4/3/21
f 8/2/22 5/1/23 4/3/24
f 9/7/25 10/8/26 6/2/27
f 5/1/28 9/7/29 6/2/30
f 11/9/31 7/5/11 6/2/32
f 10/8/33 11/9/34 6/2/32
f 11/9/35 12/8/36 8/2/37
f 7/5/38 11/9/39 8/2/40
f 9/7/41 5/1/42 8/2/43
f 12/8/44 9/7/45 8/2/22
f 9/7/46 12/8/47 15/10/48
f 14/11/49 9/7/50 15/10/51
f 13/12/52 15/10/53 12/8/47
f 11/9/54 13/12/55 12/8/56
f 15/10/57 10/8/58 9/7/59
f 14/11/60 15/10/61 9/7/62
f 10/8/63 15/10/61 13/12/64
f 11/9/65 10/8/33 13/12/66
f 17/3/67 21/2/68 20/1/69
f 16/4/70 17/3/71 20/1/72
f 22/5/73 21/2/74 17/3/12
f 18/6/8 22/5/75 17/3/9
f 19/3/15 23/2/76 22/5/77
f 18/6/16 19/3/18 22/5/78
f 20/1/79 23/2/80 19/3/81
f 16/4/82 20/1/83 19/3/84
f 21/2/68 25/8/85 24/7/86
f 20/1/87 21/2/88 24/7/89
f 26/9/90 25/8/91 21/2/92
f 22/5/93 26/9/94 21/2/95
f 23/2/96 27/8/97 26/9/98
f 22/5/77 23/2/96 26/9/99
f 24/7/100 27/8/101 23/2/102
f 20/1/103 24/7/104 23/2/105
f 24/7/106 29/11/49 30/10/107
f 27/8/101 24/7/108 30/10/109
f 27/8/110 30/10/107 28/12/111
f 26/9/112 27/8/97 28/12/113
f 30/10/114 29/11/60 24/7/115
f 25/8/116 30/10/117 24/7/118
f 28/12/119 30/10/120 25/8/116
f 26/9/121 28/12/122 25/8/123
f 2/3/67 32/2/68 31/1/69
f 2/3/71 31/1/72 1/4/70
f 2/3/9 3/6/8 33/5/75
f 2/3/12 33/5/73 32/2/74
f 4/3/15 34/2/76 33/5/77
f 4/3/18 33/5/78 3/6/16
f 4/3/84 1/4/82 31/1/83
f 4/3/81 31/1/79 34/2/80
f 32/2/68 36/8/85 35/7/86
f 32/2/88 35/7/89 31/1/87
f 32/2/95 33/5/93 37/9/124
f 32/2/92 37/9/90 36/8/91
f 34/2/96 38/8/97 37/9/98
f 34/2/96 37/9/99 33/5/77
f 34/2/105 31/1/125 35/7/104
f 34/2/102 35/7/100 38/8/101
f 41/10/109 38/8/101 35/7/108
f 41/10/107 35/7/106 40/11/49
f 38/8/110 41/10/107 39/12/111
f 38/8/97 39/12/113 37/9/112
f 35/7/118 36/8/116 41/10/117
f 35/7/115 41/10/114 40/11/60
f 39/12/119 41/10/120 36/8/116
f 39/12/122 36/8/123 37/9/121
f 42/1/1 43/2/2 17/3/3
f 42/1/5 17/3/6 16/4/4
f 17/3/12 43/2/10 44/5/11
f 17/3/9 44/5/7 18/6/8
f 44/5/13 45/2/14 19/3/15
f 44/5/17 19/3/18 18/6/16
f 19/3/24 45/2/22 42/1/23
f 19/3/21 42/1/19 16/4/20
f 46/7/25 47/8/26 43/2/27
f 46/7/29 43/2/30 42/1/28
f 43/2/32 47/8/33 48/9/34
f 43/2/32 48/9/34 44/5/11
f 48/9/35 49/8/36 45/2/37
f 48/9/39 45/2/40 44/5/38
f 45/2/22 49/8/44 46/7/45
f 45/2/43 46/7/41 42/1/126
f 52/10/51 51/11/49 46/7/50
f 52/10/48 46/7/46 49/8/47
f 50/12/52 52/10/53 49/8/47
f 50/12/55 49/8/56 48/9/54
f 46/7/62 51/11/60 52/10/61
f 46/7/59 52/10/57 47/8/58
f 47/8/63 52/10/61 50/12/64
f 47/8/33 50/12/66 48/9/65
f 57/1/127 58/2/128 54/3/129
f 53/4/130 57/1/131 54/3/132
f 59/5/133 55/6/134 54/3/135
f 58/2/136 59/5/137 54/3/138
f 59/5/139 60/2/140 56/3/141
f 55/6/142 59/5/143 56/3/144
f 57/1/145 53/4/146 56/3/147
f 60/2/148 57/1/149 56/3/150
f 61/7/151 62/8/152 58/2/153
f 57/1/154 61/7/155 58/2/153
f 63/9/156 59/5/157 58/2/158
f 62/8/159 63/9/160 58/2/161
f 63/9/162 64/8/163 60/2/164
f 59/5/165 63/9/166 60/2/167
f 61/7/168 57/1/169 60/2/170
f 64/8/171 61/7/172 60/2/148
f 61/7/173 64/8/174 67/10/175
f 66/11/176 61/7/177 67/10/178
f 65/12/179 67/10/178 64/8/174
f 63/9/180 65/12/181 64/8/182
f 67/10/183 62/8/184 61/7/185
f 66/11/186 67/10/187 61/7/188
f 62/8/189 67/10/187 65/12/190
f 63/9/191 62/8/159 65/12/192
f 69/3/193 73/2/194 72/1/195
f 68/4/196 69/3/197 72/1/198
f 74/5/199 73/2/200 69/3/138
f 70/6/134 74/5/201 69/3/135
f 71/3/141 75/2/202 74/5/203
f 70/6/142 71/3/144 74/5/204
f 72/1/205 75/2/206 71/3/207
f 68/4/208 72/1/209 71/3/210
f 73/2/194 77/8/211 76/7/212
f 72/1/213 73/2/214 76/7/215
f 78/9/216 77/8/217 73/2/218
f 74/5/219 78/9/220 73/2/221
f 75/2/222 79/8/223 78/9/224
f 74/5/225 75/2/226 78/9/227
f 76/7/228 79/8/229 75/2/230
f 72/1/231 76/7/232 75/2/233
f 76/7/234 81/11/176 82/10/235
f 79/8/236 76/7/237 82/10/238
f 79/8/239 82/10/235 80/12/240
f 78/9/241 79/8/223 80/12/242
f 82/10/243 81/11/186 76/7/244
f 77/8/245 82/10/246 76/7/247
f 80/12/248 82/10/243 77/8/245
f 78/9/249 80/12/250 77/8/251
f 54/3/193 84/2/194 83/1/195
f 54/3/197 83/1/198 53/4/196
f 54/3/135 55/6/134 85/5/201
f 54/3/138 85/5/199 84/2/200
f 56/3/141 86/2/202 85/5/203
f 56/3/144 85/5/204 55/6/142
f 56/3/210 53/4/208 83/1/209
f 56/3/207 83/1/205 86/2/206
f 84/2/194 88/8/211 87/7/212
f 84/2/214 87/7/215 83/1/213
f 84/2/221 85/5/219 89/9/216
f 84/2/218 89/9/216 88/8/217
f 86/2/222 90/8/223 89/9/224
f 86/2/226 89/9/227 85/5/225
f 86/2/233 83/1/231 87/7/232
f 86/2/230 87/7/228 90/8/229
f 93/10/238 90/8/236 87/7/237
f 93/10/235 87/7/234 92/11/176
f 90/8/239 93/10/235 91/12/240
f 90/8/223 91/12/242 89/9/241
f 87/7/247 88/8/245 93/10/246
f 87/7/244 93/10/243 92/11/186
f 91/12/248 93/10/243 88/8/245
f 91/12/250 88/8/251 89/9/249
f 94/1/127 95/2/128 69/3/129
f 94/1/131 69/3/132 68/4/130
f 69/3/138 95/2/136 96/5/137
f 69/3/135 96/5/133 70/6/134
f 96/5/139 97/2/140 71/3/141
f 96/5/143 71/3/144 70/6/142
f 71/3/150 97/2/148 94/1/149
f 71/3/147 94/1/145 68/4/146
f 98/7/151 99/8/152 95/2/153
f 98/7/155 95/2/153 94/1/154
f 95/2/161 99/8/159 100/9/160
f 95/2/158 100/9/160 96/5/157
f 100/9/162 101/8/163 97/2/164
f 100/9/166 97/2/167 96/5/165
f 97/2/148 101/8/171 98/7/172
f 97/2/170 98/7/168 94/1/169
f 104/10/178 103/11/176 98/7/177
f 104/10/175 98/7/173 101/8/174
f 102/12/179 104/10/178 101/8/174
f 102/12/181 101/8/182 100/9/180
f 98/7/188 103/11/186 104/10/187
f 98/7/185 104/10/183 99/8/184
f 99/8/189 104/10/187 102/12/190
f 99/8/159 102/12/192 100/9/191
