# Blender 4.1.0
# www.blender.org
mtllib model.mtl
o base
v 0.000000 136.680130 -0.000010
v 0.000000 136.680130 -0.000010
v 0.000000 136.680130 -0.000010
v 0.000000 136.680130 -0.000010
v 0.000000 58.577194 -0.000004
v 0.000000 58.577194 -0.000004
v 0.000000 58.577194 -0.000004
v 0.000000 58.577194 -0.000004
v -54.247723 78.102928 -0.000006
v -54.247723 117.154388 -0.000009
v -54.247723 78.102928 -0.000006
v -54.247723 117.154388 -0.000009
v 54.247723 78.102928 -0.000006
v 54.247723 117.154388 -0.000009
v 54.247723 78.102928 -0.000006
v 54.247723 117.154388 -0.000009
v 0.000000 78.102921 -58.577202
v 0.000000 117.154381 -58.577202
v 0.000000 78.102921 -58.577202
v 0.000000 117.154381 -58.577202
v 0.000000 78.102936 58.577187
v 0.000000 117.154396 58.577187
v 0.000000 78.102936 58.577187
v 0.000000 117.154396 58.577187
vn -0.0000 -0.0000 1.0000
vn 0.7337 -0.0000 -0.6795
vn 0.7337 -0.0000 0.6795
vn -0.7337 -0.0000 -0.6795
vn -0.7337 -0.0000 0.6795
vn 0.3231 -0.8978 0.2993
vn -0.3231 -0.8978 0.2993
vn 0.3231 -0.8978 -0.2993
vn -0.3231 -0.8978 -0.2993
vn 0.3231 0.8978 0.2993
vn -0.3231 0.8978 0.2993
vn 0.3231 0.8978 -0.2993
vn -0.3231 0.8978 -0.2993
vt 0.000000 1.000000
vt 0.125000 1.000000
vt 0.000000 0.875000
vt 0.000000 0.750000
vt 0.176775 0.750000
vt 0.176775 1.000000
vt 0.088387 0.846906
vt 0.088387 1.000000
vt 0.000000 0.846906
vt 0.176775 0.846906
s 0
usemtl none
f 14/1/1 13/1/1 16/1/1 15/1/1
f 9/1/1 10/1/1 12/1/1 11/1/1
f 1/1/1 2/1/1 4/1/1 3/1/1
f 6/1/1 5/1/1 8/1/1 7/1/1
f 21/1/1 22/1/1 24/1/1 23/1/1
f 18/1/1 17/1/1 20/1/1 19/1/1
f 2/1/1 1/1/1 14/2/1 16/2/1
f 3/2/1 4/2/1 10/1/1 12/1/1
f 1/1/1 3/1/1 22/3/1 24/3/1
f 4/3/1 2/3/1 18/1/1 20/1/1
f 5/1/1 6/1/1 13/2/1 15/2/1
f 8/2/1 7/2/1 9/1/1 11/1/1
f 7/1/1 5/1/1 21/3/1 23/3/1
f 6/3/1 8/3/1 17/1/1 19/1/1
f 15/4/2 17/5/2 18/6/2 16/1/2
f 22/1/3 21/4/3 13/5/3 14/6/3
f 20/1/4 19/4/4 11/5/4 12/6/4
f 9/4/5 23/5/5 24/6/5 10/1/5
f 5/7/6 13/6/6 21/1/6
f 7/7/7 23/6/7 9/1/7
f 6/7/8 17/6/8 15/1/8
f 8/7/9 11/6/9 19/1/9
f 1/8/10 22/9/10 14/10/10
f 3/8/11 10/9/11 24/10/11
f 2/8/12 16/9/12 18/10/12
f 4/8/13 20/9/13 12/10/13
